<svg width="326" height="40" viewBox="0 0 326 40"  xmlns="http://www.w3.org/2000/svg"  fill="#ffffff">
<path d="M27.0493 8.87938C24.7019 6.76709 21.7767 5.28067 17.8403 5.28067C10.8703 5.28067 5.23652 11.7349 5.23652 19.6755C5.23652 27.5771 10.8342 34.0313 18.2736 34.0313C21.7045 34.0313 24.9186 32.7795 27.1216 30.5499L30.3357 34.4615C27.1216 37.9038 23.149 39.312 17.9486 39.312C7.80061 39.312 0 30.5108 0 19.7146C0 8.84027 7.94506 0.0390625 17.8403 0.0390625C23.4018 0.0390625 27.266 1.76019 30.3357 4.77215L27.0493 8.87938Z"/>
<path d="M70.4946 19.7147C70.4946 30.5108 62.4412 39.2729 52.546 39.2729C42.6508 39.2729 34.6696 30.4717 34.6696 19.6756C34.6696 8.8012 42.6869 0 52.546 0C62.4051 0 70.4946 8.87944 70.4946 19.7147ZM65.2581 19.7147C65.2581 11.7349 59.5882 5.24161 52.546 5.24161C45.576 5.24161 39.9061 11.6958 39.9061 19.6365C39.9061 27.538 45.576 33.9922 52.546 33.9922C59.5882 33.9922 65.2581 27.5771 65.2581 19.7147Z"/>
<path d="M83.2428 9.3879V38.5688H78.2952V0.704041H83.6401L102.997 30.0414V0.704041H107.909V38.5688H102.564L83.2428 9.3879Z"/>
<path d="M165.33 0.704041L154.098 38.5688H147.995L139.761 7.39296L131.455 38.5688H125.568L114.337 0.704041H119.79L128.566 32.0754L136.836 0.704041H143.011L151.354 32.1146L160.129 0.704041H165.33Z"/>
<path d="M171.938 0.704041H194.112V5.71095H176.85V17.0547H191.945V22.0616H176.85V33.5228H194.112V38.5297H171.938V0.704041Z"/>
<path d="M224.701 28.8679H208.016L204.405 38.5688H199.24L213.614 0.704041H219.392L233.765 38.5688H228.276L224.701 28.8679ZM216.358 6.37593L209.822 24.0957H222.967L216.358 6.37593Z"/>
<path d="M249.041 32.6622L259.948 0.704041H265.076L251.786 38.5688H246.008L232.718 0.704041H238.171L249.041 32.6622Z"/>
<path d="M270.674 0.704041H292.848V5.71095H275.586V17.0547H290.681V22.0616H275.586V33.5228H292.848V38.5297H270.674V0.704041Z"/>
<path d="M300.432 0.704041H312.638C320.33 0.704041 325.386 5.20243 325.386 12.0869C325.386 17.4459 322.28 21.3966 317.261 22.8831L326 38.5297H320.33L312.169 23.5481H305.343V38.5297H300.432V0.704041ZM305.343 5.47625V18.7758H313.071C317.369 18.7758 320.258 16.1159 320.258 12.0869C320.258 8.05794 317.369 5.47625 313.071 5.47625H305.343Z"/>
</svg>
