<svg width="24" height="24" viewBox="0 0 24 24" fill="none" xmlns="http://www.w3.org/2000/svg">
<g clip-path="url(#clip0_206_161)">
<path d="M3.80393 5.30334L11.9951 5.30334C12.094 5.30322 12.1907 5.33245 12.2731 5.38733C12.3554 5.44221 12.4196 5.52028 12.4575 5.61166C12.4954 5.70304 12.5054 5.80361 12.4861 5.90065C12.4669 5.9977 12.4193 6.08685 12.3493 6.15682L4.15678 14.3494C4.08681 14.4193 3.99766 14.4669 3.90061 14.4862C3.80357 14.5054 3.70299 14.4955 3.61162 14.4575C3.52024 14.4196 3.44217 14.3554 3.38729 14.2731C3.33241 14.1908 3.30318 14.094 3.3033 13.9951L3.3033 5.80397C3.30322 5.73821 3.31611 5.67307 3.34124 5.61229C3.36637 5.55151 3.40324 5.49629 3.44975 5.44979C3.49625 5.40328 3.55147 5.36641 3.61225 5.34128C3.67303 5.31615 3.73817 5.30326 3.80393 5.30334Z" fill="black"/>
<path d="M16.8992 20.3995L8.70809 20.4052C8.60915 20.4054 8.51238 20.3762 8.43003 20.3214C8.34767 20.2666 8.28344 20.1885 8.24544 20.0972C8.20745 20.0058 8.19742 19.9053 8.2166 19.8082C8.23579 19.7111 8.28335 19.622 8.35324 19.5519L16.5401 11.3538C16.6101 11.2838 16.6992 11.2361 16.7962 11.2168C16.8932 11.1975 16.9938 11.2074 17.0852 11.2452C17.1766 11.2831 17.2547 11.3472 17.3097 11.4295C17.3646 11.5118 17.3939 11.6085 17.3939 11.7074L17.3995 19.8986C17.3996 19.9643 17.3868 20.0295 17.3617 20.0903C17.3366 20.1511 17.2998 20.2063 17.2533 20.2529C17.2068 20.2994 17.1516 20.3363 17.0909 20.3615C17.0301 20.3866 16.965 20.3996 16.8992 20.3995Z" fill="black"/>
</g>
<defs>
<clipPath id="clip0_206_161">
<rect width="24" height="24" fill="white"/>
</clipPath>
</defs>
</svg>
