<svg width="210" height="210" viewBox="0 0 210 210" fill="none" xmlns="http://www.w3.org/2000/svg">
<circle cx="105" cy="105" r="105" fill="white"/>
<path d="M114.42 182.366C114.965 186.841 111.776 190.95 107.27 191.069C91.925 191.474 76.6958 187.769 63.1901 180.267C47.298 171.439 34.6078 157.808 26.9377 141.326C19.2676 124.844 17.0114 106.357 20.4922 88.5138C23.973 70.6708 33.0122 54.3874 46.3147 41.9966C59.6173 29.6058 76.5004 21.7436 94.5453 19.5363C112.59 17.3291 130.871 20.8901 146.768 29.7091C162.664 38.5282 175.362 52.1527 183.041 68.6307C189.567 82.6342 192.184 98.0877 190.692 113.366C190.254 117.852 185.928 120.741 181.504 119.881V119.881C177.079 119.02 174.241 114.733 174.579 110.238C175.473 98.361 173.315 86.4035 168.246 75.5256C162.022 62.1716 151.732 51.13 138.849 43.9829C125.966 36.8358 111.151 33.9499 96.5272 35.7387C81.9033 37.5275 68.2209 43.8992 57.4403 53.9409C46.6597 63.9826 39.3342 77.1789 36.5133 91.6391C33.6924 106.099 35.5209 121.081 41.7369 134.439C47.9528 147.796 58.2372 158.843 71.1164 165.997C81.6077 171.825 93.3821 174.826 105.293 174.776C109.8 174.757 113.875 177.892 114.42 182.366V182.366Z" fill="#333333"/>
</svg>
