<svg width="222" height="55" viewBox="0 0 222 55" fill="none" xmlns="http://www.w3.org/2000/svg">
<path d="M20.834 38.143C19.197 39.78 16.428 40.85 13.281 40.85C9.882 40.85 7.05 40.032 4.532 36.822V54.32H0V9.50502H4.532V13.155C7.05 9.88301 9.882 9.12701 13.281 9.12701C16.428 9.12701 19.198 10.197 20.834 11.834C23.981 14.98 24.61 20.143 24.61 24.989C24.61 29.835 23.981 34.997 20.834 38.143ZM12.336 13.155C5.601 13.155 4.531 18.946 4.531 24.989C4.531 31.031 5.601 36.822 12.336 36.822C19.071 36.822 20.078 31.031 20.078 24.989C20.079 18.946 19.071 13.155 12.336 13.155Z" fill="#58585A"/>
<path d="M48.72 40.472V37.514C46.202 40.032 43.937 40.85 39.782 40.85C35.502 40.85 32.984 40.032 31.033 38.017C29.522 36.506 28.704 34.178 28.704 31.723C28.704 26.31 32.481 22.785 39.404 22.785H48.719V19.826C48.719 15.295 46.453 13.028 40.788 13.028C36.823 13.028 34.809 13.972 32.983 16.553L29.899 13.72C32.669 10.133 35.816 9.125 40.851 9.125C49.16 9.125 53.251 12.713 53.251 19.448V40.47H48.72V40.472ZM48.72 26.184H40.034C35.376 26.184 33.111 28.073 33.111 31.661C33.111 35.248 35.314 36.948 40.223 36.948C42.867 36.948 45.196 36.759 47.147 34.871C48.217 33.863 48.72 32.101 48.72 29.52V26.184Z" fill="#58585A"/>
<path d="M69.179 40.472C63.891 40.472 61.248 36.758 61.248 32.163V13.155H57.346V9.693H61.248V0H65.78V9.693H72.389V13.155H65.78V32.038C65.78 34.871 67.102 36.57 69.997 36.57H72.389V40.472H69.179Z" fill="#58585A"/>
<path d="M95.301 40.472V37.514C92.783 40.032 90.518 40.85 86.363 40.85C82.083 40.85 79.565 40.032 77.614 38.017C76.103 36.506 75.285 34.178 75.285 31.723C75.285 26.31 79.062 22.785 85.985 22.785H95.3V19.826C95.3 15.295 93.034 13.028 87.369 13.028C83.404 13.028 81.39 13.972 79.564 16.553L76.48 13.72C79.25 10.133 82.397 9.125 87.432 9.125C95.741 9.125 99.832 12.713 99.832 19.448V40.47H95.301V40.472ZM95.301 26.184H86.615C81.957 26.184 79.692 28.073 79.692 31.661C79.692 35.248 81.895 36.948 86.804 36.948C89.448 36.948 91.777 36.759 93.728 34.871C94.798 33.863 95.301 32.101 95.301 29.52V26.184Z" fill="#58585A"/>
<path d="M117.334 54.697C112.676 54.697 110.096 53.502 106.822 50.543L109.78 47.648C112.046 49.662 113.619 50.732 117.207 50.732C123.186 50.732 125.704 46.515 125.704 41.227V36.381C123.186 39.591 120.353 40.409 117.018 40.409C113.871 40.409 111.164 39.275 109.528 37.639C106.444 34.554 105.752 29.771 105.752 24.736C105.752 19.7 106.444 14.917 109.528 11.833C111.165 10.196 113.934 9.12601 117.081 9.12601C120.48 9.12601 123.249 9.88201 125.768 13.154V9.50401H130.237V41.416C130.237 49.095 125.453 54.697 117.334 54.697ZM118.026 13.155C111.291 13.155 110.284 18.946 110.284 24.737C110.284 30.527 111.291 36.318 118.026 36.318C124.76 36.318 125.705 30.527 125.705 24.737C125.705 18.946 124.761 13.155 118.026 13.155Z" fill="#58585A"/>
<path d="M157.368 37.325C155.228 39.466 152.269 40.85 148.493 40.85C144.717 40.85 141.759 39.465 139.618 37.325C136.472 34.115 135.842 29.772 135.842 24.989C135.842 20.205 136.472 15.862 139.618 12.652C141.759 10.511 144.717 9.12701 148.493 9.12701C152.269 9.12701 155.228 10.512 157.368 12.652C160.515 15.862 161.144 20.205 161.144 24.989C161.145 29.772 160.516 34.115 157.368 37.325ZM154.158 15.422C152.71 13.974 150.696 13.155 148.493 13.155C146.29 13.155 144.339 13.973 142.891 15.422C140.624 17.688 140.373 21.527 140.373 24.989C140.373 28.45 140.624 32.29 142.891 34.555C144.338 36.003 146.289 36.822 148.493 36.822C150.697 36.822 152.71 36.004 154.158 34.555C156.424 32.289 156.613 28.45 156.613 24.989C156.613 21.527 156.424 17.687 154.158 15.422Z" fill="#58585A"/>
<path d="M186.577 40.472V21.401C186.577 15.924 183.618 13.155 178.961 13.155C174.303 13.155 171.281 15.988 171.281 21.401V40.472H166.75V9.50502H171.281V12.904C173.484 10.385 176.506 9.12701 179.968 9.12701C183.304 9.12701 186.01 10.135 187.899 12.023C190.102 14.164 191.109 17.058 191.109 20.646V40.473H186.577V40.472Z" fill="#58585A"/>
<path d="M216.541 40.472V37.514C214.023 40.032 211.758 40.85 207.603 40.85C203.323 40.85 200.805 40.032 198.854 38.017C197.343 36.506 196.525 34.178 196.525 31.723C196.525 26.31 200.301 22.785 207.225 22.785H216.54V19.826C216.54 15.295 214.274 13.028 208.609 13.028C204.644 13.028 202.63 13.972 200.804 16.553L197.72 13.72C200.49 10.133 203.636 9.125 208.672 9.125C216.98 9.125 221.071 12.713 221.071 19.448V40.47H216.541V40.472ZM216.541 26.184H207.855C203.197 26.184 200.931 28.073 200.931 31.661C200.931 35.248 203.134 36.948 208.043 36.948C210.687 36.948 213.016 36.759 214.967 34.871C216.037 33.863 216.54 32.101 216.54 29.52V26.184H216.541Z" fill="#58585A"/>
</svg>
